# xmcd
#
# Track frame offsets:
#	150
#	14882
#	27360
#	39538
#	58442
#	78634
#	102410
#	123276
#	142291
#
# Disc length: 2171 seconds
# Revision: 0
# Processed by: cddbd v1.5.2PL0 Copyright (c) Steve Scherf et al.
# Submitted via: dBpowerAMP V12.0
#
DISCID=89087909
DTITLE=Isaac Cantor - Road to Noyo
DYEAR=2012
DGENRE=Country
TTITLE0=Cherokee Shuffle
TTITLE1=Santa Cruz Stomp
TTITLE2=Henry's Getaway
TTITLE3=Baker Street Breakdown
TTITLE4=Joy
TTITLE5=April
TTITLE6=Buckwheat
TTITLE7=Road to Noyo
TTITLE8=Clinch Mountain Backstep - Train 45
EXTD=
EXTT0=
EXTT1=
EXTT2=
EXTT3=
EXTT4=
EXTT5=
EXTT6=
EXTT7=
EXTT8=
PLAYORDER=
